<?xml version="1.0" encoding="UTF-8" standalone="no"?>
<!DOCTYPE svg PUBLIC "-//W3C//DTD SVG 1.1//EN" "http://www.w3.org/Graphics/SVG/1.1/DTD/svg11.dtd">
<svg width="100%" height="100%" viewBox="0 0 8558 3446" version="1.1" xmlns="http://www.w3.org/2000/svg" xmlns:xlink="http://www.w3.org/1999/xlink" xml:space="preserve" xmlns:serif="http://www.serif.com/" style="fill-rule:evenodd;clip-rule:evenodd;stroke-linejoin:round;stroke-miterlimit:2;">
    <g transform="matrix(1,0,0,1,-523.606,-9480.89)">
        <g transform="matrix(1.16446,0,0,1.16446,-2835.57,-929.071)">
            <path d="M5145.71,8939.71L5145.71,9382.87L4279.9,9382.87L4279.9,11898.3L3754.66,11898.3L3754.66,9382.87L2884.74,9382.87L2884.74,8939.71L5145.71,8939.71Z" style="fill:rgb(34,34,34);fill-rule:nonzero;"/>
            <path d="M6906.07,10380L7825.23,11898.3L7217.93,11898.3L6540.87,10704.2L5884.32,11898.3L5293.44,11898.3L6208.49,10351.3L5367.3,8939.71L5999.22,8939.71L6590.11,10031.2L7201.52,8939.71L7788.3,8939.71L6906.07,10380Z" style="fill:rgb(34,34,34);fill-rule:nonzero;"/>
            <path d="M10233.9,8939.71L10233.9,9382.87L9368.11,9382.87L9368.11,11898.3L8842.87,11898.3L8842.87,9382.87L7972.95,9382.87L7972.95,8939.71L10233.9,8939.71Z" style="fill:rgb(34,34,34);fill-rule:nonzero;"/>
        </g>
    </g>
</svg>
